<svg width="141" height="28" viewBox="0 0 141 28" fill="none" xmlns="http://www.w3.org/2000/svg">
<path d="M10.9961 13.7969L10 14.9688C11.1589 15.0729 12.194 15.2161 13.1055 15.3984C14.0169 15.5677 14.8568 15.763 15.625 15.9844C16.4062 16.1927 17.0898 16.4141 17.6758 16.6484C19.7331 17.5078 20.7617 18.7057 20.7617 20.2422C20.7617 21.1797 20.332 22.0977 19.4727 22.9961C18.6133 23.8945 17.4935 24.6953 16.1133 25.3984C14.7461 26.1016 13.3333 26.6484 11.875 27.0391C10.4297 27.4427 9.11458 27.6445 7.92969 27.6445C5.95052 27.6445 4.40755 27.2799 3.30078 26.5508C2.19401 25.8086 1.64062 24.7995 1.64062 23.5234C1.64062 22.638 1.97917 21.5964 2.65625 20.3984C3.33333 19.2005 4.38151 17.7096 5.80078 15.9258C4.73307 15.8737 3.97786 15.7174 3.53516 15.457C3.09245 15.1836 2.87109 14.806 2.87109 14.3242C2.87109 14.0247 2.95573 13.7969 3.125 13.6406C3.29427 13.4844 3.52214 13.3737 3.80859 13.3086C4.09505 13.2305 4.64193 13.1393 5.44922 13.0352C6.26953 12.931 7.31771 12.8008 8.59375 12.6445C10.013 10.8997 11.2826 9.59115 12.4023 8.71875C13.5352 7.83333 14.7461 7.32552 16.0352 7.19531C16.1393 7.18229 16.25 7.17578 16.3672 7.17578C16.4974 7.17578 16.5625 7.20833 16.5625 7.27344C16.5625 7.35156 16.4128 7.5599 16.1133 7.89844C15.8268 8.23698 15.3516 8.77734 14.6875 9.51953C14.0365 10.2617 13.2617 11.1406 12.3633 12.1562C14.8112 11.8307 16.8099 11.4596 18.3594 11.043C19.9219 10.6133 21.1003 10.1055 21.8945 9.51953C22.6888 8.93359 23.0859 8.28255 23.0859 7.56641C23.0859 6.69401 22.6628 6.0625 21.8164 5.67188C20.9701 5.28125 19.6745 5.08594 17.9297 5.08594C16.9661 5.08594 15.8594 5.18359 14.6094 5.37891C13.3724 5.57422 12.2461 5.79557 11.2305 6.04297C10.2279 6.29036 9.32943 6.55729 8.53516 6.84375C7.75391 7.11719 7.36328 7.31901 7.36328 7.44922C7.36328 7.48828 7.40234 7.52734 7.48047 7.56641C8.11849 7.80078 8.4375 7.99609 8.4375 8.15234C8.4375 8.36068 7.46094 8.76432 5.50781 9.36328C3.55469 9.94922 2.23958 10.2422 1.5625 10.2422C1.08073 10.2422 0.839844 10.0013 0.839844 9.51953C0.839844 8.94661 1.36068 7.91797 2.40234 6.43359C3.45703 4.9362 4.41406 3.97917 5.27344 3.5625C5.57292 3.41927 6.26953 3.19141 7.36328 2.87891C8.45703 2.56641 9.65495 2.26693 10.957 1.98047C12.2721 1.69401 13.6068 1.45312 14.9609 1.25781C16.3151 1.0625 17.513 0.964844 18.5547 0.964844C21.0156 0.964844 22.8646 1.40755 24.1016 2.29297C25.3385 3.16536 25.957 4.26562 25.957 5.59375C25.957 6.49219 25.6706 7.35807 25.0977 8.19141C24.5378 9.02474 23.6589 9.8125 22.4609 10.5547C21.263 11.2969 19.7005 11.9479 17.7734 12.5078C15.8594 13.0677 13.6003 13.4974 10.9961 13.7969ZM8.92578 16.3164C8.2487 17.1237 7.64323 17.8398 7.10938 18.4648C6.58854 19.0768 6.21094 19.5781 5.97656 19.9688C5.75521 20.3464 5.64453 20.7305 5.64453 21.1211C5.64453 21.7461 5.96354 22.306 6.60156 22.8008C7.2526 23.2826 8.18359 23.5234 9.39453 23.5234C10.5143 23.5234 11.7057 23.3281 12.9688 22.9375C14.2448 22.5339 15.3125 22.013 16.1719 21.375C17.0443 20.737 17.4805 20.0924 17.4805 19.4414C17.4805 18.8815 17.1615 18.4193 16.5234 18.0547C15.8854 17.6901 14.9154 17.3711 13.6133 17.0977C12.3112 16.8112 10.7487 16.5508 8.92578 16.3164ZM30.3906 12.1172C30.0651 12.1172 29.7526 11.9935 29.4531 11.7461C29.1667 11.4987 29.0234 11.1862 29.0234 10.8086C29.0234 10.2357 29.2969 9.59766 29.8438 8.89453C30.3906 8.19141 30.957 7.83984 31.543 7.83984C31.9336 7.83984 32.2591 7.96354 32.5195 8.21094C32.7799 8.44531 32.9102 8.79036 32.9102 9.24609C32.9102 9.80599 32.6432 10.4245 32.1094 11.1016C31.5755 11.7786 31.0026 12.1172 30.3906 12.1172ZM31.7188 20.8477V22.2734C30.4557 23.901 29.2773 25.1315 28.1836 25.9648C27.0898 26.7852 26.1589 27.1953 25.3906 27.1953C24.3229 27.1953 23.5286 26.6354 23.0078 25.5156C22.487 24.3958 22.2266 23.1719 22.2266 21.8438C22.2266 21.3359 22.2786 20.8542 22.3828 20.3984C22.487 19.9297 22.6107 19.5456 22.7539 19.2461C22.8971 18.9466 23.1641 18.4779 23.5547 17.8398C25.4036 14.9622 27.0964 13.5234 28.6328 13.5234C29.4271 13.5234 29.8242 13.8294 29.8242 14.4414C29.8242 14.8581 29.5638 15.5091 29.043 16.3945C28.5352 17.2799 28.0794 17.9115 27.6758 18.2891C26.543 19.3828 25.8008 20.1445 25.4492 20.5742C25.1107 21.0039 24.9414 21.4922 24.9414 22.0391C24.9414 22.5078 25.1172 22.8984 25.4688 23.2109C25.8203 23.5234 26.276 23.6797 26.8359 23.6797C27.4479 23.6797 28.1185 23.4583 28.8477 23.0156C29.5898 22.5599 30.5469 21.8372 31.7188 20.8477ZM44.4922 20.8867V22.1562C43.138 23.0156 42.0703 23.4453 41.2891 23.4453C40.8594 23.4453 40.4036 23.3737 39.9219 23.2305C38.75 24.7148 37.7409 25.8021 36.8945 26.4922C36.0612 27.1823 35.2214 27.5273 34.375 27.5273C33.3984 27.5273 32.6432 27.013 32.1094 25.9844C31.5885 24.9557 31.3281 23.6797 31.3281 22.1562C31.3281 20.0859 31.9531 17.8333 33.2031 15.3984C34.4531 12.9505 35.957 10.6654 37.7148 8.54297C39.4857 6.40755 41.1979 4.64323 42.8516 3.25C44.5052 1.85677 45.625 1.16016 46.2109 1.16016C46.7708 1.16016 47.0508 1.54427 47.0508 2.3125C47.0508 5.72396 42.6758 11.6745 33.9258 20.1641C33.8997 20.3984 33.8867 20.8607 33.8867 21.5508C33.8867 23.3477 34.3685 24.2461 35.332 24.2461C35.7096 24.2461 36.0872 24.0964 36.4648 23.7969C36.8555 23.4844 37.4479 22.8984 38.2422 22.0391C37.9297 21.3359 37.7734 20.8151 37.7734 20.4766C37.7734 19.7604 38.0664 18.9857 38.6523 18.1523C39.2383 17.319 39.9023 16.6029 40.6445 16.0039C41.3997 15.3919 41.9466 15.0859 42.2852 15.0859C42.819 15.0859 43.0859 15.4701 43.0859 16.2383C43.0859 16.8242 42.9297 17.5273 42.6172 18.3477C42.3177 19.168 41.875 20.1055 41.2891 21.1602C41.5104 21.3424 41.6862 21.4792 41.8164 21.5703C41.9466 21.6484 42.1419 21.6875 42.4023 21.6875C43.0013 21.6875 43.6979 21.4206 44.4922 20.8867ZM34.5703 17.957C35.2474 17.3711 35.9245 16.681 36.6016 15.8867C37.2917 15.0794 38.2943 13.849 39.6094 12.1953C40.8724 10.6068 41.862 9.28516 42.5781 8.23047C43.3073 7.16276 43.8542 6.27734 44.2188 5.57422C44.5833 4.87109 44.7656 4.38932 44.7656 4.12891C44.7656 3.93359 44.7135 3.83594 44.6094 3.83594C44.3229 3.83594 43.724 4.3112 42.8125 5.26172C41.9141 6.19922 40.8854 7.48828 39.7266 9.12891C38.125 11.3945 36.9661 13.1003 36.25 14.2461C35.5339 15.3919 34.974 16.6289 34.5703 17.957ZM52.5 12.1172C52.1745 12.1172 51.862 11.9935 51.5625 11.7461C51.276 11.4987 51.1328 11.1862 51.1328 10.8086C51.1328 10.2357 51.4062 9.59766 51.9531 8.89453C52.5 8.19141 53.0664 7.83984 53.6523 7.83984C54.043 7.83984 54.3685 7.96354 54.6289 8.21094C54.8893 8.44531 55.0195 8.79036 55.0195 9.24609C55.0195 9.80599 54.7526 10.4245 54.2188 11.1016C53.6849 11.7786 53.112 12.1172 52.5 12.1172ZM53.8281 20.8477V22.2734C52.5651 23.901 51.3867 25.1315 50.293 25.9648C49.1992 26.7852 48.2682 27.1953 47.5 27.1953C46.4323 27.1953 45.638 26.6354 45.1172 25.5156C44.5964 24.3958 44.3359 23.1719 44.3359 21.8438C44.3359 21.3359 44.388 20.8542 44.4922 20.3984C44.5964 19.9297 44.7201 19.5456 44.8633 19.2461C45.0065 18.9466 45.2734 18.4779 45.6641 17.8398C47.513 14.9622 49.2057 13.5234 50.7422 13.5234C51.5365 13.5234 51.9336 13.8294 51.9336 14.4414C51.9336 14.8581 51.6732 15.5091 51.1523 16.3945C50.6445 17.2799 50.1888 17.9115 49.7852 18.2891C48.6523 19.3828 47.9102 20.1445 47.5586 20.5742C47.2201 21.0039 47.0508 21.4922 47.0508 22.0391C47.0508 22.5078 47.2266 22.8984 47.5781 23.2109C47.9297 23.5234 48.3854 23.6797 48.9453 23.6797C49.5573 23.6797 50.2279 23.4583 50.957 23.0156C51.6992 22.5599 52.6562 21.8372 53.8281 20.8477ZM63.0078 20.6328V22.0781C60.2865 25.6849 58.0729 27.4883 56.3672 27.4883C55.4427 27.4883 54.7135 26.987 54.1797 25.9844C53.6589 24.9688 53.3984 23.6406 53.3984 22C53.3984 20.6719 53.7109 19.0964 54.3359 17.2734C54.9609 15.4375 55.7943 13.582 56.8359 11.707C57.8906 9.81901 58.9779 8.17839 60.0977 6.78516C61.2305 5.37891 62.2786 4.39583 63.2422 3.83594C63.6328 3.60156 63.9388 3.48438 64.1602 3.48438C64.4336 3.48438 64.6159 3.60807 64.707 3.85547C64.7982 4.08984 64.8438 4.5 64.8438 5.08594C64.8438 6.89583 64.1081 9.1224 62.6367 11.7656C61.1654 14.3958 59.1146 17.0846 56.4844 19.832C56.3542 20.5091 56.2891 21.0299 56.2891 21.3945C56.2891 22.2279 56.4648 22.9049 56.8164 23.4258C57.181 23.9466 57.6823 24.207 58.3203 24.207C58.6458 24.207 58.9974 24.0833 59.375 23.8359C59.7526 23.5755 60.1497 23.2565 60.5664 22.8789C60.9831 22.5013 61.7969 21.7526 63.0078 20.6328ZM57.168 17.1172C57.8451 16.4531 58.4961 15.6979 59.1211 14.8516C59.7591 14.0052 60.3581 13.1003 60.918 12.1367C61.4779 11.1732 61.9141 10.3073 62.2266 9.53906C62.5521 8.77083 62.7148 8.19141 62.7148 7.80078C62.7148 7.5013 62.6107 7.35156 62.4023 7.35156C62.3242 7.35156 62.1745 7.42318 61.9531 7.56641C61.1589 8.21745 60.2669 9.49349 59.2773 11.3945C58.2878 13.2826 57.5846 15.1901 57.168 17.1172ZM75.4102 20.8086V22.1172C74.5508 22.8984 73.8607 23.4193 73.3398 23.6797C72.819 23.9401 72.0703 24.0443 71.0938 23.9922C69.401 25.9974 67.9102 27 66.6211 27C65.8919 27 65.2279 26.7591 64.6289 26.2773C64.0299 25.7956 63.5482 25.138 63.1836 24.3047C62.832 23.4714 62.6562 22.5404 62.6562 21.5117C62.6562 20.6784 62.9297 19.7539 63.4766 18.7383C64.0365 17.7227 64.7526 16.7786 65.625 15.9062C66.5104 15.0208 67.4544 14.3112 68.457 13.7773C69.4596 13.2305 70.3906 12.957 71.25 12.957C71.862 12.957 72.3438 13.0547 72.6953 13.25C73.0469 13.4323 73.2227 13.6927 73.2227 14.0312C73.2227 14.2917 73.0729 14.5911 72.7734 14.9297C73.2682 15.0339 73.6068 15.2096 73.7891 15.457C73.9714 15.6914 74.0625 16.1276 74.0625 16.7656C74.0625 17.3906 73.9128 18.1784 73.6133 19.1289C73.3268 20.0794 72.9297 20.9714 72.4219 21.8047L72.7734 22.1562H73.0664C73.2878 22.1562 73.5026 22.1042 73.7109 22C73.9323 21.8828 74.1276 21.7656 74.2969 21.6484C74.4661 21.5182 74.8372 21.2383 75.4102 20.8086ZM71.3867 15.6719C70.306 16.3229 69.3815 16.9154 68.6133 17.4492C67.8451 17.9701 67.194 18.5039 66.6602 19.0508C66.1263 19.5846 65.7682 20.125 65.5859 20.6719C65.2604 22.1302 65.0977 22.918 65.0977 23.0352C65.0977 23.8945 65.6966 24.3242 66.8945 24.3242C67.4544 24.3242 68.3919 23.8424 69.707 22.8789C69.4857 22.2669 69.375 21.681 69.375 21.1211C69.375 20.3008 69.5443 19.4674 69.8828 18.6211C70.2214 17.7617 70.7227 16.7786 71.3867 15.6719ZM87.1484 20.8867V22.1953C85.7552 23.5625 84.6159 24.6237 83.7305 25.3789C82.8581 26.1341 82.0378 26.7201 81.2695 27.1367C80.5143 27.5534 79.7721 27.7617 79.043 27.7617C78.3268 27.7617 77.6693 27.4818 77.0703 26.9219C76.4714 26.349 76.0026 25.6068 75.6641 24.6953C75.3255 23.7708 75.1562 22.7943 75.1562 21.7656C75.1562 20.8802 75.3516 20.0924 75.7422 19.4023C76.1328 18.7122 76.888 17.8203 78.0078 16.7266C79.3359 15.4245 80.5664 14.4219 81.6992 13.7188C82.8451 13.0026 83.7435 12.6445 84.3945 12.6445C84.8633 12.6445 85.2604 12.8073 85.5859 13.1328C85.9115 13.4583 86.0742 13.8685 86.0742 14.3633C86.0742 14.7799 85.8594 15.3724 85.4297 16.1406C85 16.9089 84.5182 17.5794 83.9844 18.1523C83.4505 18.7122 83.0273 18.9922 82.7148 18.9922C82.3763 18.9922 82.207 18.8099 82.207 18.4453C82.2201 18.3411 82.2266 18.2435 82.2266 18.1523C82.2396 18.0612 82.2461 17.9701 82.2461 17.8789C82.2461 17.7227 82.1875 17.638 82.0703 17.625C81.9661 17.599 81.8359 17.6445 81.6797 17.7617C80.3776 18.6732 79.4857 19.3177 79.0039 19.6953C78.5221 20.0599 78.138 20.431 77.8516 20.8086C77.5781 21.1862 77.4414 21.5833 77.4414 22C77.4414 22.7682 77.6888 23.3932 78.1836 23.875C78.6784 24.3568 79.3229 24.5977 80.1172 24.5977C80.9375 24.5977 81.9206 24.2852 83.0664 23.6602C84.2253 23.0221 85.5859 22.0977 87.1484 20.8867ZM101.68 20.8477V22.0781C100.547 23.237 99.5638 24.1875 98.7305 24.9297C97.9102 25.6589 97.1875 26.2122 96.5625 26.5898C95.9505 26.9674 95.4297 27.1562 95 27.1562C93.9844 27.1562 93.4766 26.5573 93.4766 25.3594C93.4766 24.3958 93.7891 23.2826 94.4141 22.0195C95.0521 20.7435 95.9635 19.2461 97.1484 17.5273C96.5625 17.8529 96.0091 18.2305 95.4883 18.6602C94.9674 19.0768 94.5052 19.5195 94.1016 19.9883C93.6979 20.444 93.3594 20.8346 93.0859 21.1602C92.2396 22.1107 91.4258 23.0872 90.6445 24.0898C89.8633 25.0794 89.3359 25.724 89.0625 26.0234C88.7891 26.3229 88.5286 26.4727 88.2812 26.4727C87.2656 26.4727 86.7578 25.2227 86.7578 22.7227C86.7578 21.9023 86.8815 20.9974 87.1289 20.0078C87.3763 19.0182 88.0404 17.7096 89.1211 16.082C91.3997 12.6706 93.3464 9.88411 94.9609 7.72266C96.5885 5.54818 97.9362 3.90755 99.0039 2.80078C100.072 1.68099 100.788 1.13411 101.152 1.16016C101.608 1.19922 101.973 1.29036 102.246 1.43359C102.533 1.57682 102.676 1.73958 102.676 1.92188C102.676 2.2474 102.448 2.78776 101.992 3.54297C101.549 4.28516 100.781 5.45052 99.6875 7.03906C98.5026 8.71875 97.6628 9.90365 97.168 10.5938C96.6732 11.2708 95.931 12.2409 94.9414 13.5039C93.9648 14.7539 93.0664 15.8737 92.2461 16.8633C91.4388 17.8398 90.5143 18.901 89.4727 20.0469V22.3906C91.2174 20.4505 92.7279 18.862 94.0039 17.625C95.2799 16.388 96.3607 15.457 97.2461 14.832C98.1315 14.194 98.7826 13.875 99.1992 13.875C99.5898 13.875 99.9544 14.1094 100.293 14.5781C100.632 15.0339 100.801 15.4115 100.801 15.7109C100.801 15.8411 100.736 16.0039 100.605 16.1992C99.668 17.319 98.9193 18.25 98.3594 18.9922C97.8125 19.7214 97.3893 20.3789 97.0898 20.9648C96.7904 21.5378 96.6406 22.0326 96.6406 22.4492C96.6406 23.0612 96.9336 23.3672 97.5195 23.3672C98.1445 23.3672 99.5312 22.5273 101.68 20.8477ZM104.805 21.5508V22.0391C104.805 22.8073 104.993 23.4062 105.371 23.8359C105.749 24.2656 106.243 24.4805 106.855 24.4805C107.493 24.4805 108.151 24.3307 108.828 24.0312C109.518 23.7318 110.202 23.3346 110.879 22.8398C111.556 22.3451 112.383 21.681 113.359 20.8477V22.0391C111.888 23.8099 110.508 25.1706 109.219 26.1211C107.93 27.0586 106.621 27.5273 105.293 27.5273C104.134 27.5273 103.216 27.0781 102.539 26.1797C101.862 25.2812 101.523 24.0508 101.523 22.4883C101.523 21.1211 101.842 19.8841 102.48 18.7773C103.118 17.6576 104.16 16.4792 105.605 15.2422C106.595 14.3958 107.578 13.7578 108.555 13.3281C109.531 12.8984 110.404 12.6836 111.172 12.6836C111.784 12.6836 112.266 12.8268 112.617 13.1133C112.982 13.3867 113.164 13.8034 113.164 14.3633C113.164 15.1836 112.858 16.0039 112.246 16.8242C111.634 17.6315 110.697 18.4388 109.434 19.2461C108.184 20.0404 106.641 20.8086 104.805 21.5508ZM105 20.2812C106.172 19.8255 107.174 19.2591 108.008 18.582C108.841 17.9049 109.453 17.2604 109.844 16.6484C110.247 16.0234 110.449 15.5677 110.449 15.2812C110.449 14.9818 110.312 14.832 110.039 14.832C109.805 14.832 109.421 14.9818 108.887 15.2812C108.366 15.5807 107.832 15.9714 107.285 16.4531C106.751 16.9349 106.27 17.5013 105.84 18.1523C105.41 18.8034 105.13 19.513 105 20.2812ZM125.117 20.8867V22.1953C123.724 23.5625 122.585 24.6237 121.699 25.3789C120.827 26.1341 120.007 26.7201 119.238 27.1367C118.483 27.5534 117.741 27.7617 117.012 27.7617C116.296 27.7617 115.638 27.4818 115.039 26.9219C114.44 26.349 113.971 25.6068 113.633 24.6953C113.294 23.7708 113.125 22.7943 113.125 21.7656C113.125 20.8802 113.32 20.0924 113.711 19.4023C114.102 18.7122 114.857 17.8203 115.977 16.7266C117.305 15.4245 118.535 14.4219 119.668 13.7188C120.814 13.0026 121.712 12.6445 122.363 12.6445C122.832 12.6445 123.229 12.8073 123.555 13.1328C123.88 13.4583 124.043 13.8685 124.043 14.3633C124.043 14.7799 123.828 15.3724 123.398 16.1406C122.969 16.9089 122.487 17.5794 121.953 18.1523C121.419 18.7122 120.996 18.9922 120.684 18.9922C120.345 18.9922 120.176 18.8099 120.176 18.4453C120.189 18.3411 120.195 18.2435 120.195 18.1523C120.208 18.0612 120.215 17.9701 120.215 17.8789C120.215 17.7227 120.156 17.638 120.039 17.625C119.935 17.599 119.805 17.6445 119.648 17.7617C118.346 18.6732 117.454 19.3177 116.973 19.6953C116.491 20.0599 116.107 20.431 115.82 20.8086C115.547 21.1862 115.41 21.5833 115.41 22C115.41 22.7682 115.658 23.3932 116.152 23.875C116.647 24.3568 117.292 24.5977 118.086 24.5977C118.906 24.5977 119.889 24.2852 121.035 23.6602C122.194 23.0221 123.555 22.0977 125.117 20.8867ZM139.766 20.8477V22.1562C138.307 23.862 137.083 25.1576 136.094 26.043C135.104 26.9154 134.277 27.3516 133.613 27.3516C132.975 27.3516 132.396 27.1628 131.875 26.7852C131.367 26.4076 130.905 25.8867 130.488 25.2227C130.085 24.5586 129.603 23.6341 129.043 22.4492C128.379 23.2695 127.78 24.0378 127.246 24.7539C126.712 25.457 126.341 25.9258 126.133 26.1602C125.924 26.3945 125.736 26.5117 125.566 26.5117C125.215 26.5117 124.961 26.2904 124.805 25.8477C124.648 25.3919 124.57 24.7344 124.57 23.875C124.57 22.7031 124.707 21.5768 124.98 20.4961C125.267 19.4023 125.671 18.3411 126.191 17.3125C126.725 16.2839 127.402 15.1771 128.223 13.9922C129.056 12.7943 129.987 11.5443 131.016 10.2422C132.435 8.44531 133.659 6.98047 134.688 5.84766C135.716 4.70182 136.608 3.84245 137.363 3.26953C138.132 2.68359 138.77 2.39062 139.277 2.39062C139.902 2.39062 140.215 2.67057 140.215 3.23047C140.215 3.71224 139.062 5.45052 136.758 8.44531C134.453 11.4271 131.094 15.5026 126.68 20.6719V22.3516C129.635 19.1875 132.012 16.8372 133.809 15.3008C135.618 13.7643 137.018 12.9961 138.008 12.9961C138.411 12.9961 138.724 13.237 138.945 13.7188C139.167 14.1875 139.277 14.7344 139.277 15.3594C139.277 16.6354 138.73 17.8203 137.637 18.9141C136.543 19.9948 134.863 21.2383 132.598 22.6445C132.988 23.2305 133.333 23.6602 133.633 23.9336C133.932 24.194 134.31 24.3242 134.766 24.3242C135.169 24.3242 135.605 24.1875 136.074 23.9141C136.543 23.6406 137.018 23.2956 137.5 22.8789C137.995 22.4622 138.75 21.7852 139.766 20.8477ZM132.051 21.8438C132.546 21.5182 133.158 21.0169 133.887 20.3398C134.629 19.6497 135.26 18.9401 135.781 18.2109C136.302 17.4688 136.562 16.8503 136.562 16.3555C136.562 16.1471 136.471 16.043 136.289 16.043C135.794 16.043 134.941 16.5182 133.73 17.4688C132.533 18.4193 131.361 19.6367 130.215 21.1211C130.71 21.1211 131.322 21.362 132.051 21.8438Z" fill="black"/>
</svg>
